<svg xmlns="http://www.w3.org/2000/svg" width="2048" height="2048" viewBox="0 0 2048 2048"><style>path{fill:#121D1A}@media (prefers-color-scheme:dark){path{fill:#FAFAF8}}</style>
  <path d="M 1048.00 1520.50 L 1023.00 1520.50 L 1020.00 1517.50 L 1016.00 1520.50 L 1005.00 1520.50 L 999.00 1517.50 L 973.00 1518.50 L 969.00 1515.50 L 955.00 1516.50 L 952.00 1513.50 L 943.00 1514.50 L 939.00 1511.50 L 919.00 1510.50 L 916.00 1507.50 L 908.00 1508.50 L 905.00 1505.50 L 900.00 1506.50 L 897.00 1503.50 L 892.00 1504.50 L 889.00 1501.50 L 884.00 1502.50 L 881.00 1499.50 L 870.00 1498.50 L 855.00 1491.50 L 851.00 1492.50 L 838.00 1485.50 L 834.00 1486.50 L 822.00 1479.50 L 820.00 1480.50 L 817.00 1477.50 L 814.00 1478.50 L 804.00 1472.50 L 800.00 1472.50 L 768.00 1456.50 L 744.00 1442.50 L 740.00 1437.50 L 734.00 1436.50 L 684.00 1397.50 L 682.00 1398.50 L 647.00 1366.50 L 616.50 1335.00 L 611.50 1327.00 L 600.50 1318.00 L 600.50 1314.00 L 594.50 1309.00 L 560.50 1261.00 L 524.50 1193.00 L 520.50 1183.00 L 521.50 1180.00 L 512.50 1163.00 L 506.50 1145.00 L 507.50 1142.00 L 504.50 1139.00 L 505.50 1134.00 L 500.50 1125.00 L 501.50 1121.00 L 498.50 1118.00 L 499.50 1112.00 L 496.50 1109.00 L 495.50 1095.00 L 492.50 1092.00 L 493.50 1086.00 L 490.50 1083.00 L 491.50 1075.00 L 488.50 1072.00 L 487.50 1048.00 L 484.50 1045.00 L 485.50 1030.00 L 482.50 1027.00 L 482.50 934.00 L 485.50 929.00 L 484.50 914.00 L 487.50 911.00 L 488.50 887.00 L 491.50 884.00 L 490.50 876.00 L 493.50 872.00 L 492.50 866.00 L 495.50 863.00 L 496.50 849.00 L 499.50 846.00 L 498.50 841.00 L 501.50 838.00 L 500.50 833.00 L 503.50 830.00 L 502.50 826.00 L 509.50 811.00 L 508.50 807.00 L 517.50 788.00 L 516.50 785.00 L 519.50 782.00 L 518.50 780.00 L 523.50 772.00 L 526.50 760.00 L 546.50 720.00 L 551.50 716.00 L 552.50 710.00 L 580.50 666.00 L 587.50 660.00 L 586.50 658.00 L 630.50 606.00 L 686.00 556.50 L 688.00 557.50 L 706.00 542.50 L 708.00 543.50 L 712.00 538.50 L 724.00 533.50 L 728.00 528.50 L 730.00 529.50 L 742.00 520.50 L 758.00 512.50 L 761.00 513.50 L 766.00 508.50 L 770.00 509.50 L 781.00 502.50 L 782.50 505.00 L 764.50 522.00 L 764.50 526.00 L 751.50 537.00 L 750.50 541.00 L 742.50 548.00 L 742.50 551.00 L 735.50 557.00 L 734.50 561.00 L 729.50 565.00 L 730.50 567.00 L 719.50 579.00 L 720.50 581.00 L 709.50 595.00 L 710.50 597.00 L 685.50 639.00 L 684.50 646.00 L 673.50 669.00 L 674.50 672.00 L 667.50 686.00 L 666.50 696.00 L 663.50 699.00 L 664.50 703.00 L 661.50 706.00 L 662.50 711.00 L 659.50 714.00 L 660.50 719.00 L 657.50 722.00 L 658.50 728.00 L 655.50 731.00 L 654.50 749.00 L 651.50 754.00 L 652.50 769.00 L 649.50 772.00 L 650.50 805.00 L 648.50 807.00 L 648.50 815.00 L 650.50 817.00 L 649.50 844.00 L 652.50 848.00 L 651.50 862.00 L 654.50 865.00 L 653.50 875.00 L 656.50 878.00 L 657.50 896.00 L 660.50 899.00 L 659.50 903.00 L 662.50 906.00 L 661.50 910.00 L 664.50 913.00 L 665.50 924.00 L 676.50 948.00 L 675.50 951.00 L 692.50 982.00 L 693.50 988.00 L 698.50 992.00 L 704.50 1002.00 L 703.50 1004.00 L 723.50 1032.00 L 748.50 1060.00 L 789.00 1097.50 L 820.00 1119.50 L 827.00 1123.50 L 829.00 1122.50 L 837.00 1129.50 L 868.00 1145.50 L 880.00 1148.50 L 892.00 1155.50 L 896.00 1154.50 L 904.00 1159.50 L 913.00 1160.50 L 916.00 1163.50 L 920.00 1162.50 L 923.00 1165.50 L 928.00 1164.50 L 939.00 1169.50 L 945.00 1168.50 L 948.00 1171.50 L 954.00 1170.50 L 957.00 1173.50 L 983.00 1174.50 L 986.00 1177.50 L 1058.00 1177.50 L 1061.00 1174.50 L 1076.00 1175.50 L 1079.00 1172.50 L 1088.00 1173.50 L 1091.00 1170.50 L 1099.00 1171.50 L 1102.00 1168.50 L 1108.00 1169.50 L 1111.00 1166.50 L 1116.00 1167.50 L 1119.00 1164.50 L 1131.00 1163.50 L 1134.00 1160.50 L 1137.00 1161.50 L 1140.00 1158.50 L 1143.00 1159.50 L 1146.00 1156.50 L 1149.00 1157.50 L 1152.00 1154.50 L 1161.00 1153.50 L 1168.00 1148.50 L 1170.00 1149.50 L 1182.00 1142.50 L 1184.00 1143.50 L 1198.00 1134.50 L 1200.00 1135.50 L 1208.00 1131.50 L 1216.00 1124.50 L 1218.00 1125.50 L 1248.00 1105.50 L 1253.00 1098.50 L 1257.00 1098.50 L 1262.00 1092.50 L 1266.00 1091.50 L 1303.50 1056.00 L 1345.50 1002.00 L 1344.50 1000.00 L 1351.50 992.00 L 1352.50 986.00 L 1363.50 970.00 L 1362.50 968.00 L 1367.50 961.00 L 1366.50 958.00 L 1377.50 937.00 L 1376.50 934.00 L 1379.50 931.00 L 1378.50 928.00 L 1385.50 913.00 L 1386.50 901.00 L 1389.50 898.00 L 1390.50 884.00 L 1393.50 881.00 L 1394.50 862.00 L 1397.50 859.00 L 1396.50 844.00 L 1399.50 839.00 L 1399.50 776.00 L 1396.50 773.00 L 1397.50 758.00 L 1394.50 755.00 L 1395.50 746.00 L 1392.50 743.00 L 1393.50 735.00 L 1390.50 732.00 L 1391.50 726.00 L 1388.50 723.00 L 1389.50 718.00 L 1386.50 715.00 L 1385.50 702.00 L 1382.50 699.00 L 1374.50 673.00 L 1362.50 647.00 L 1363.50 645.00 L 1350.50 619.00 L 1317.50 565.00 L 1293.50 535.00 L 1265.50 508.00 L 1267.00 502.50 L 1273.00 507.50 L 1283.00 510.50 L 1309.00 525.50 L 1315.00 526.50 L 1323.00 533.50 L 1325.00 532.50 L 1328.00 536.50 L 1331.00 536.50 L 1362.00 558.50 L 1371.00 567.50 L 1373.00 566.50 L 1415.00 604.50 L 1446.50 640.00 L 1469.50 674.00 L 1474.50 678.00 L 1502.50 724.00 L 1501.50 726.00 L 1516.50 752.00 L 1515.50 754.00 L 1528.50 780.00 L 1527.50 783.00 L 1532.50 790.00 L 1531.50 793.00 L 1538.50 806.00 L 1539.50 817.00 L 1546.50 832.00 L 1545.50 836.00 L 1548.50 839.00 L 1547.50 843.00 L 1550.50 846.00 L 1549.50 852.00 L 1552.50 855.00 L 1553.50 869.00 L 1556.50 872.00 L 1555.50 880.00 L 1558.50 883.00 L 1557.50 892.00 L 1560.50 895.00 L 1559.50 903.00 L 1562.50 906.00 L 1563.50 938.00 L 1566.50 941.00 L 1566.50 1014.00 L 1563.50 1017.00 L 1564.50 1036.00 L 1561.50 1039.00 L 1562.50 1054.00 L 1559.50 1057.00 L 1560.50 1065.00 L 1557.50 1068.00 L 1558.50 1078.00 L 1555.50 1081.00 L 1554.50 1097.00 L 1551.50 1100.00 L 1552.50 1105.00 L 1549.50 1108.00 L 1550.50 1113.00 L 1547.50 1116.00 L 1546.50 1127.00 L 1541.50 1136.00 L 1542.50 1140.00 L 1539.50 1143.00 L 1540.50 1146.00 L 1537.50 1149.00 L 1536.50 1158.00 L 1533.50 1161.00 L 1532.50 1169.00 L 1525.50 1181.00 L 1522.50 1192.00 L 1517.50 1199.00 L 1518.50 1201.00 L 1503.50 1227.00 L 1504.50 1229.00 L 1499.50 1234.00 L 1496.50 1243.00 L 1489.50 1251.00 L 1488.50 1257.00 L 1483.50 1261.00 L 1480.50 1269.00 L 1468.50 1287.00 L 1463.50 1291.00 L 1458.50 1301.00 L 1410.50 1357.00 L 1379.00 1386.50 L 1333.00 1422.50 L 1275.00 1458.50 L 1251.00 1470.50 L 1248.00 1469.50 L 1242.00 1474.50 L 1235.00 1475.50 L 1228.00 1480.50 L 1209.00 1485.50 L 1197.00 1492.50 L 1194.00 1491.50 L 1185.00 1496.50 L 1181.00 1495.50 L 1178.00 1498.50 L 1174.00 1497.50 L 1171.00 1500.50 L 1160.00 1501.50 L 1157.00 1504.50 L 1153.00 1503.50 L 1150.00 1506.50 L 1134.00 1507.50 L 1131.00 1510.50 L 1125.00 1509.50 L 1121.00 1512.50 L 1112.00 1511.50 L 1109.00 1514.50 L 1081.00 1515.50 L 1078.00 1518.50 L 1053.00 1517.50 L 1048.00 1520.50 Z" fill-rule="nonzero"/>
  <path d="M 1037.00 910.50 L 1006.00 910.50 L 1002.00 907.50 L 991.00 908.50 L 988.00 905.50 L 981.00 906.50 L 978.00 903.50 L 973.00 904.50 L 970.00 901.50 L 966.00 902.50 L 964.00 900.50 L 954.00 898.50 L 947.00 893.50 L 942.00 892.50 L 936.00 887.50 L 934.00 888.50 L 927.00 882.50 L 920.00 880.50 L 914.00 874.50 L 912.00 874.50 L 900.00 861.50 L 890.50 854.00 L 889.50 851.00 L 872.50 833.00 L 873.50 831.00 L 860.50 813.00 L 852.50 797.00 L 853.50 794.00 L 848.50 787.00 L 849.50 783.00 L 846.50 780.00 L 847.50 777.00 L 844.50 774.00 L 845.50 768.00 L 842.50 765.00 L 843.50 759.00 L 840.50 756.00 L 841.50 743.00 L 838.50 740.00 L 838.50 712.00 L 841.50 708.00 L 840.50 695.00 L 843.50 692.00 L 842.50 684.00 L 845.50 681.00 L 844.50 676.00 L 847.50 673.00 L 846.50 669.00 L 849.50 666.00 L 848.50 664.00 L 851.50 661.00 L 850.50 658.00 L 853.50 655.00 L 852.50 654.00 L 854.50 652.00 L 854.50 649.00 L 857.50 646.00 L 856.50 644.00 L 870.50 622.00 L 870.50 620.00 L 904.00 584.50 L 908.00 583.50 L 920.00 572.50 L 922.00 573.50 L 926.00 568.50 L 927.00 569.50 L 930.00 566.50 L 934.00 564.50 L 935.00 565.50 L 938.00 562.50 L 946.00 558.50 L 948.00 559.50 L 956.00 554.50 L 959.00 555.50 L 962.00 552.50 L 965.00 553.50 L 968.00 550.50 L 971.00 551.50 L 974.00 548.50 L 980.00 549.50 L 983.00 546.50 L 991.00 547.50 L 994.00 544.50 L 1005.00 545.50 L 1008.00 542.50 L 1039.00 542.50 L 1043.00 545.50 L 1054.00 544.50 L 1057.00 547.50 L 1065.00 546.50 L 1068.00 549.50 L 1073.00 548.50 L 1076.00 551.50 L 1080.00 550.50 L 1083.00 553.50 L 1086.00 552.50 L 1089.00 555.50 L 1091.00 554.50 L 1094.00 557.50 L 1096.00 556.50 L 1102.00 561.50 L 1105.00 560.50 L 1112.00 565.50 L 1113.00 564.50 L 1127.00 575.50 L 1137.00 580.50 L 1170.50 614.00 L 1170.50 616.00 L 1176.50 622.00 L 1175.50 624.00 L 1180.50 628.00 L 1179.50 630.00 L 1186.50 638.00 L 1194.50 654.00 L 1194.50 658.00 L 1198.50 664.00 L 1198.50 668.00 L 1200.50 670.00 L 1199.50 675.00 L 1202.50 678.00 L 1201.50 682.00 L 1204.50 685.00 L 1203.50 693.00 L 1206.50 696.00 L 1205.50 707.00 L 1208.50 710.00 L 1208.50 743.00 L 1205.50 746.00 L 1206.50 757.00 L 1203.50 760.00 L 1204.50 766.00 L 1201.50 769.00 L 1202.50 773.00 L 1199.50 776.00 L 1200.50 780.00 L 1197.50 783.00 L 1198.50 786.00 L 1195.50 789.00 L 1196.50 791.00 L 1194.50 793.00 L 1194.50 796.00 L 1191.50 799.00 L 1192.50 800.00 L 1185.50 811.00 L 1186.50 813.00 L 1184.50 817.00 L 1167.50 839.00 L 1168.50 841.00 L 1133.00 874.50 L 1129.00 875.50 L 1103.00 892.50 L 1092.00 895.50 L 1085.00 900.50 L 1081.00 899.50 L 1078.00 902.50 L 1075.00 901.50 L 1072.00 904.50 L 1067.00 903.50 L 1064.00 906.50 L 1057.00 905.50 L 1053.00 908.50 L 1040.00 907.50 L 1037.00 910.50 Z" fill-rule="nonzero"/>
</svg>
