<svg xmlns="http://www.w3.org/2000/svg" width="1200" height="420" viewBox="0 0 1200 420" role="img">
<rect width="1200" height="420" fill="#111110"/>
<rect x="0" y="0" width="1200" height="420" fill="url(#g)" opacity="0.5"/>
<defs><radialGradient id="g" cx="78%" cy="50%" r="60%"><stop offset="0%" stop-color="#4E9CBE" stop-opacity="0.30"/><stop offset="100%" stop-color="#111110" stop-opacity="0"/></radialGradient></defs>
<g transform="translate(300,30) scale(1.0)" opacity="0.1"><path d="M40 200 h70 l30 -90 l40 180 l34 -120 l26 50 h76" fill="none" stroke="#4E9CBE" stroke-width="8" stroke-linecap="round" stroke-linejoin="round"/><path d="M250 250 c-18 -22 -52 -8 -52 16 c0 26 36 46 52 56 c16 -10 52 -30 52 -56 c0 -24 -34 -38 -52 -16z" fill="#4E9CBE" opacity="0.85"/></g>
<g transform="translate(820,30) scale(1.0)" opacity="0.95"><path d="M40 200 h70 l30 -90 l40 180 l34 -120 l26 50 h76" fill="none" stroke="#4E9CBE" stroke-width="8" stroke-linecap="round" stroke-linejoin="round"/><path d="M250 250 c-18 -22 -52 -8 -52 16 c0 26 36 46 52 56 c16 -10 52 -30 52 -56 c0 -24 -34 -38 -52 -16z" fill="#4E9CBE" opacity="0.85"/></g>
<circle cx="80" cy="64" r="8" fill="#4E9CBE"/>
<text x="98" y="71" font-family="Noto Sans Mono, monospace" font-size="20" letter-spacing="5" fill="#ffffff">REGULAR</text>
<text x="80" y="230" font-family="Noto Sans Mono, monospace" font-size="22" letter-spacing="3" fill="#4E9CBE">RELATIONSHIPS</text>
<circle cx="80" cy="360" r="7" fill="#4E9CBE"/><circle cx="103" cy="360" r="7" fill="#3F7A4E"/><circle cx="126" cy="360" r="7" fill="#C16A45"/>
</svg>