<svg xmlns="http://www.w3.org/2000/svg" width="1200" height="420" viewBox="0 0 1200 420" role="img">
<rect width="1200" height="420" fill="#111110"/>
<rect x="0" y="0" width="1200" height="420" fill="url(#g)" opacity="0.5"/>
<defs><radialGradient id="g" cx="78%" cy="50%" r="60%"><stop offset="0%" stop-color="#C16A45" stop-opacity="0.30"/><stop offset="100%" stop-color="#111110" stop-opacity="0"/></radialGradient></defs>
<g transform="translate(300,30) scale(1.0)" opacity="0.1"><path d="M180 60 L320 300 L40 300 Z" fill="none" stroke="#C16A45" stroke-width="7" stroke-linecap="round" stroke-linejoin="round"/><circle cx="180" cy="60" r="16" fill="#C16A45"/><circle cx="320" cy="300" r="16" fill="#C16A45"/><circle cx="40" cy="300" r="22" fill="#C16A45"/></g>
<g transform="translate(820,30) scale(1.0)" opacity="0.95"><path d="M180 60 L320 300 L40 300 Z" fill="none" stroke="#C16A45" stroke-width="7" stroke-linecap="round" stroke-linejoin="round"/><circle cx="180" cy="60" r="16" fill="#C16A45"/><circle cx="320" cy="300" r="16" fill="#C16A45"/><circle cx="40" cy="300" r="22" fill="#C16A45"/></g>
<circle cx="80" cy="64" r="8" fill="#C16A45"/>
<text x="98" y="71" font-family="Noto Sans Mono, monospace" font-size="20" letter-spacing="5" fill="#ffffff">REGULAR</text>
<text x="80" y="230" font-family="Noto Sans Mono, monospace" font-size="22" letter-spacing="3" fill="#C16A45">YOU&#x27;RE NOT ALONE</text>
<circle cx="80" cy="360" r="7" fill="#4E9CBE"/><circle cx="103" cy="360" r="7" fill="#3F7A4E"/><circle cx="126" cy="360" r="7" fill="#C16A45"/>
</svg>