<svg xmlns="http://www.w3.org/2000/svg" width="1200" height="420" viewBox="0 0 1200 420" role="img">
<rect width="1200" height="420" fill="#111110"/>
<rect x="0" y="0" width="1200" height="420" fill="url(#g)" opacity="0.5"/>
<defs><radialGradient id="g" cx="78%" cy="50%" r="60%"><stop offset="0%" stop-color="#3F7A4E" stop-opacity="0.30"/><stop offset="100%" stop-color="#111110" stop-opacity="0"/></radialGradient></defs>
<g transform="translate(300,30) scale(1.0)" opacity="0.1"><path d="M40 230 q140 80 280 0 l-40 -50 h-200 z" fill="none" stroke="#3F7A4E" stroke-width="7" stroke-linecap="round" stroke-linejoin="round"/><path d="M70 180 q-30 -40 0 -70 M290 180 q30 -40 0 -70" fill="none" stroke="#3F7A4E" stroke-width="6" stroke-linecap="round" stroke-linejoin="round"/><line x1="180" y1="180" x2="180" y2="70" fill="none" stroke="#3F7A4E" stroke-width="7" stroke-linecap="round" stroke-linejoin="round"/><path d="M180 80 h70 v40 h-70" fill="none" stroke="#3F7A4E" stroke-width="6" stroke-linecap="round" stroke-linejoin="round"/><circle cx="110" cy="205" r="9" fill="#3F7A4E"/><circle cx="150" cy="205" r="9" fill="#3F7A4E"/><circle cx="190" cy="205" r="9" fill="#3F7A4E"/><circle cx="230" cy="205" r="9" fill="#3F7A4E"/></g>
<g transform="translate(820,30) scale(1.0)" opacity="0.95"><path d="M40 230 q140 80 280 0 l-40 -50 h-200 z" fill="none" stroke="#3F7A4E" stroke-width="7" stroke-linecap="round" stroke-linejoin="round"/><path d="M70 180 q-30 -40 0 -70 M290 180 q30 -40 0 -70" fill="none" stroke="#3F7A4E" stroke-width="6" stroke-linecap="round" stroke-linejoin="round"/><line x1="180" y1="180" x2="180" y2="70" fill="none" stroke="#3F7A4E" stroke-width="7" stroke-linecap="round" stroke-linejoin="round"/><path d="M180 80 h70 v40 h-70" fill="none" stroke="#3F7A4E" stroke-width="6" stroke-linecap="round" stroke-linejoin="round"/><circle cx="110" cy="205" r="9" fill="#3F7A4E"/><circle cx="150" cy="205" r="9" fill="#3F7A4E"/><circle cx="190" cy="205" r="9" fill="#3F7A4E"/><circle cx="230" cy="205" r="9" fill="#3F7A4E"/></g>
<circle cx="80" cy="64" r="8" fill="#3F7A4E"/>
<text x="98" y="71" font-family="Noto Sans Mono, monospace" font-size="20" letter-spacing="5" fill="#ffffff">REGULAR</text>
<text x="80" y="230" font-family="Noto Sans Mono, monospace" font-size="22" letter-spacing="3" fill="#3F7A4E">FATHERHOOD, THROUGH TIME</text>
<circle cx="80" cy="360" r="7" fill="#4E9CBE"/><circle cx="103" cy="360" r="7" fill="#3F7A4E"/><circle cx="126" cy="360" r="7" fill="#C16A45"/>
</svg>