<svg xmlns="http://www.w3.org/2000/svg" width="1200" height="420" viewBox="0 0 1200 420" role="img">
<rect width="1200" height="420" fill="#111110"/>
<rect x="0" y="0" width="1200" height="420" fill="url(#g)" opacity="0.5"/>
<defs><radialGradient id="g" cx="78%" cy="50%" r="60%"><stop offset="0%" stop-color="#4E9CBE" stop-opacity="0.30"/><stop offset="100%" stop-color="#111110" stop-opacity="0"/></radialGradient></defs>
<g transform="translate(300,30) scale(1.0)" opacity="0.1"><line x1="180" y1="80" x2="90" y2="180" stroke="#4E9CBE" stroke-width="5" opacity="0.6"/><line x1="180" y1="80" x2="270" y2="180" stroke="#4E9CBE" stroke-width="5" opacity="0.6"/><line x1="90" y1="180" x2="140" y2="290" stroke="#4E9CBE" stroke-width="5" opacity="0.6"/><line x1="270" y1="180" x2="240" y2="290" stroke="#4E9CBE" stroke-width="5" opacity="0.6"/><line x1="140" y1="290" x2="240" y2="290" stroke="#4E9CBE" stroke-width="5" opacity="0.6"/><line x1="90" y1="180" x2="270" y2="180" stroke="#4E9CBE" stroke-width="5" opacity="0.6"/><circle cx="180" cy="80" r="20" fill="#4E9CBE"/><circle cx="90" cy="180" r="15" fill="#4E9CBE"/><circle cx="270" cy="180" r="15" fill="#4E9CBE"/><circle cx="140" cy="290" r="15" fill="#4E9CBE"/><circle cx="240" cy="290" r="15" fill="#4E9CBE"/></g>
<g transform="translate(820,30) scale(1.0)" opacity="0.95"><line x1="180" y1="80" x2="90" y2="180" stroke="#4E9CBE" stroke-width="5" opacity="0.6"/><line x1="180" y1="80" x2="270" y2="180" stroke="#4E9CBE" stroke-width="5" opacity="0.6"/><line x1="90" y1="180" x2="140" y2="290" stroke="#4E9CBE" stroke-width="5" opacity="0.6"/><line x1="270" y1="180" x2="240" y2="290" stroke="#4E9CBE" stroke-width="5" opacity="0.6"/><line x1="140" y1="290" x2="240" y2="290" stroke="#4E9CBE" stroke-width="5" opacity="0.6"/><line x1="90" y1="180" x2="270" y2="180" stroke="#4E9CBE" stroke-width="5" opacity="0.6"/><circle cx="180" cy="80" r="20" fill="#4E9CBE"/><circle cx="90" cy="180" r="15" fill="#4E9CBE"/><circle cx="270" cy="180" r="15" fill="#4E9CBE"/><circle cx="140" cy="290" r="15" fill="#4E9CBE"/><circle cx="240" cy="290" r="15" fill="#4E9CBE"/></g>
<circle cx="80" cy="64" r="8" fill="#4E9CBE"/>
<text x="98" y="71" font-family="Noto Sans Mono, monospace" font-size="20" letter-spacing="5" fill="#ffffff">REGULAR</text>
<text x="80" y="230" font-family="Noto Sans Mono, monospace" font-size="22" letter-spacing="3" fill="#4E9CBE">NEUROSCIENCE</text>
<circle cx="80" cy="360" r="7" fill="#4E9CBE"/><circle cx="103" cy="360" r="7" fill="#3F7A4E"/><circle cx="126" cy="360" r="7" fill="#C16A45"/>
</svg>