<svg xmlns="http://www.w3.org/2000/svg" width="1200" height="420" viewBox="0 0 1200 420" role="img">
<rect width="1200" height="420" fill="#111110"/>
<rect x="0" y="0" width="1200" height="420" fill="url(#g)" opacity="0.5"/>
<defs><radialGradient id="g" cx="78%" cy="50%" r="60%"><stop offset="0%" stop-color="#4E9CBE" stop-opacity="0.30"/><stop offset="100%" stop-color="#111110" stop-opacity="0"/></radialGradient></defs>
<g transform="translate(300,30) scale(1.0)" opacity="0.1"><circle cx="180" cy="180" r="40" fill="none" stroke="#4E9CBE" stroke-width="6" stroke-linecap="round" stroke-linejoin="round" opacity="0.81"/><circle cx="180" cy="180" r="90" fill="none" stroke="#4E9CBE" stroke-width="6" stroke-linecap="round" stroke-linejoin="round" opacity="0.57"/><circle cx="180" cy="180" r="140" fill="none" stroke="#4E9CBE" stroke-width="4" stroke-linecap="round" stroke-linejoin="round" opacity="0.33"/><circle cx="180" cy="180" r="190" fill="none" stroke="#4E9CBE" stroke-width="4" stroke-linecap="round" stroke-linejoin="round" opacity="0.10"/><circle cx="180" cy="180" r="14" fill="#4E9CBE"/></g>
<g transform="translate(820,30) scale(1.0)" opacity="0.95"><circle cx="180" cy="180" r="40" fill="none" stroke="#4E9CBE" stroke-width="6" stroke-linecap="round" stroke-linejoin="round" opacity="0.81"/><circle cx="180" cy="180" r="90" fill="none" stroke="#4E9CBE" stroke-width="6" stroke-linecap="round" stroke-linejoin="round" opacity="0.57"/><circle cx="180" cy="180" r="140" fill="none" stroke="#4E9CBE" stroke-width="4" stroke-linecap="round" stroke-linejoin="round" opacity="0.33"/><circle cx="180" cy="180" r="190" fill="none" stroke="#4E9CBE" stroke-width="4" stroke-linecap="round" stroke-linejoin="round" opacity="0.10"/><circle cx="180" cy="180" r="14" fill="#4E9CBE"/></g>
<circle cx="80" cy="64" r="8" fill="#4E9CBE"/>
<text x="98" y="71" font-family="Noto Sans Mono, monospace" font-size="20" letter-spacing="5" fill="#ffffff">REGULAR</text>
<text x="80" y="230" font-family="Noto Sans Mono, monospace" font-size="22" letter-spacing="3" fill="#4E9CBE">NEWS · DAD LIFE</text>
<circle cx="80" cy="360" r="7" fill="#4E9CBE"/><circle cx="103" cy="360" r="7" fill="#3F7A4E"/><circle cx="126" cy="360" r="7" fill="#C16A45"/>
</svg>